<?xml version="1.0" encoding="UTF-8"?><svg id="c" xmlns="http://www.w3.org/2000/svg" viewBox="0 0 32 32"><defs><style>.d{fill:#e11e19;}.d,.e,.f{stroke-width:0px;}.e{fill-rule:evenodd;}.e,.f{fill:#e11e19;}</style></defs><path class="e" d="M8.51,20.06l1.19-1.33-3.31-5.76,2.96-1.67.32.57,6.41-3.61-.32-.57,2.49-1.4,1.17,2.08,1.17-1.33-1.7-3.03-3.95,2.22-.52-.92c-.11-.2-.37-.27-.58-.16l-1.19.67-.44-.78c-.06-.1-.19-.14-.3-.08l-2.92,1.65c-.1.06-.14.19-.08.3l.44.78-1.18.67c-.2.11-.27.37-.16.58l.52.92-4.42,2.49,4.4,7.73ZM11.08,6.1c.35,0,.64.29.64.64s-.29.64-.64.64-.64-.29-.64-.64.29-.64.64-.64Z"/><path class="e" d="M23.52,12.14l-1.2,1.28,1.13,2.07c1.1,1.95.41,4.44-1.55,5.54h0l-8.27,4.64-.89-1.58-1.26,1.34,1.46,2.57,9.78-5.51h0c2.76-1.55,3.74-5.06,2.18-7.82l-1.39-2.53Z"/><path class="f" d="M7.96,23.53l-2.61-2.67-1.41,1.54,4.27,4.61s1.89-2.34,3.75-4.62l-1.31-2.36c-1.46,1.87-2.68,3.51-2.68,3.51Z"/><path class="f" d="M21.1,9.04c-.29.18-.63.45-1.01.77l1.18,2.29c.26-.26.48-.49.63-.65,3.51-3.52,7.22.39,4.64,4.09.11.09.25.34.35.44,3.28-4.55-.84-10.1-5.79-6.94Z"/><path class="d" d="M18.8,13c-.36.65-.68,1.25-.97,1.82-.28.57-.54,1.13-.75,1.68-.22.55-.4,1.11-.56,1.68s-.28,1.19-.38,1.84h-1.85c.1-.63.24-1.23.42-1.81.17-.58.37-1.14.6-1.69.23-.54.48-1.08.75-1.59.28-.52.57-1.02.87-1.52h-3.74v-1.45h5.6v1.02Z"/></svg>